<svg xmlns="http://www.w3.org/2000/svg" viewBox="0 0 28 28"><path fill="#e26e57" d="M18.455 4.138a.734.734 0 0 0-.353.079l-.526.238a.731.731 0 0 0-.033.02.733.733 0 0 0-.062.033.731.731 0 0 0-.096.072.733.733 0 0 0-.05.055.731.731 0 0 0-.032.035.733.733 0 0 0-.018.02l-.709.98a.733.733 0 0 0-.029.123.733.733 0 0 0-.05.02l-.58 1.359a.733.733 0 0 0-.055.34l-.02 1.94a.732.732 0 0 0-.002.063l.078 1.012-.158-.65a.69.69 0 0 0-.05-.137l-.237-.936a.673.673 0 0 0-.049-.13l-.238-.936a.657.657 0 0 0-.045-.123l-.229-.937a.64.64 0 0 0-.117-.239l-.21-.666a.557.557 0 0 0 .064-.133.557.557 0 0 0-.358-.699l-.21-.068a.58.58 0 0 0-.003-.002.58.58 0 0 0-.328-.102.58.58 0 0 0-.58.58v.041a.599.599 0 0 0 .094.489l.174.242.213.674a.64.64 0 0 0 .015.185l.229.938a.657.657 0 0 0 .017.142l.235.932a.673.673 0 0 0 .02.142l.234.932a.69.69 0 0 0 .017.137l.242.988a.698.698 0 0 0 .01.078l.475 2.022a.714.714 0 0 0 .018.144l.498 2.246a.724.724 0 0 0 .015.108l.53 2.203a.73.73 0 0 0 .008.049l.875 3.433a.738.738 0 0 0 .076.254l.224.432a.807.807 0 0 0-.058.152.586.586 0 0 0-.233.344.586.586 0 0 0 .075.445.721.721 0 0 0 .763.442.78.78 0 0 0 .838-.536l.02-.064a.807.807 0 0 0 .023-.033l.148-.272a.819.819 0 0 0 .1-.16l.56-1.228a.819.819 0 0 0 .05-.141l1.354-3.816a.817.817 0 0 0 .04-.168l.578-2.014a.808.808 0 0 0 .03-.217l.388-1.756a.793.793 0 0 0 .004-.318l.035-1.543a.775.775 0 0 0-.04-.264l-.156-2.236a.752.752 0 0 0-.076-.283l-.638-1.9a.743.743 0 0 0-.03-.065.738.738 0 0 0-.023-.049.743.743 0 0 0-.027-.045l-.87-1.379a.738.738 0 0 0-.035-.008.738.738 0 0 0-.1-.152l-.61-.539a.738.738 0 0 0-.036-.025.734.734 0 0 0-.033-.024.738.738 0 0 0-.102-.06.734.734 0 0 0-.037-.016.738.738 0 0 0-.076-.027.738.738 0 0 0-.037-.01.734.734 0 0 0-.04-.008.738.738 0 0 0-.08-.01l-.577-.04a.734.734 0 0 0-.016 0 .731.731 0 0 0-.002 0 .731.731 0 0 0-.008 0zm.104 1.477.144.01.344.305.76 1.199.607 1.816.155 2.188a.775.775 0 0 0-.014.11l-.037 1.552a.793.793 0 0 0-.002.006l-.39 1.781a.808.808 0 0 0-.034.086l-.586 2.045a.817.817 0 0 0-.016.033l-.648 1.828-.354-2.468a.737.737 0 0 0-.011-.05l-1.043-4.878-.135-1.774a.732.732 0 0 0-.002-.008l.018-1.767.498-1.17.547-.754zm-10.397.941a.714.714 0 0 0-.314.088l-.652.286a.71.71 0 0 0-.067.035.709.709 0 0 0-.02.011.71.71 0 0 0-.09.067.709.709 0 0 0-.007.006.71.71 0 0 0-.069.068.709.709 0 0 0-.015.018l-.014.015a.71.71 0 0 0-.008.012l-.568.703a.708.708 0 0 0 0 .002.709.709 0 0 0-.075.112.708.708 0 0 0-.002.004l-.789 1.51a.708.708 0 0 0-.01.025.709.709 0 0 0-.029.06l-.441 1.21a.709.709 0 0 0-.008.03.71.71 0 0 0-.02.073.709.709 0 0 0-.006.037.71.71 0 0 0-.004.023.574.574 0 0 0-.607-.494l-.139.01a.592.592 0 0 0-.06-.008.592.592 0 0 0-.43.145.592.592 0 0 0-.121.742.622.622 0 0 0 .023.058l.225.457a.632.632 0 0 0 .04.108l.153.297.412 1.863a.673.673 0 0 0 0 .176l.27 2.117a.784.784 0 0 0-.014.103l-.04.92a.784.784 0 0 0 .054.059.784.784 0 0 0-.02.207l.12.387a.785.785 0 0 0 0 .002.785.785 0 0 0 .001.006l.008.025a.784.784 0 0 0 .004.01.785.785 0 0 0 .022.065l.08.19a.789.789 0 0 0 .027.062.701.701 0 0 0 .002.132l.645 4.489.012.13a.711.711 0 0 0 .767.651.711.711 0 0 0 .65-.77l-.372-4.433.09-.031a.789.789 0 0 0 .368-.268l.424-.476a.786.786 0 0 0 .125-.192l.823-1.24a.777.777 0 0 0 .072-.139l.654.938 2.703 4.924a.793.793 0 0 0 .004.01l.018.029a.793.793 0 0 0 .047.078l.27.379a.793.793 0 0 0 .122.133.777.777 0 0 0 .162.14l.055.055a.758.758 0 0 0 .504.22.722.722 0 0 0 .02.003.758.758 0 0 0 .011 0 .722.722 0 0 0 .203-.016.663.663 0 0 0 .653-.512.663.663 0 0 0-.24-.677.758.758 0 0 0-.079-.09l-.047-.045a.793.793 0 0 0-.074-.13l-.252-.353-2.71-4.937a.79.79 0 0 0-.01-.012.789.789 0 0 0-.036-.058l-.92-1.32a.789.789 0 0 0-.158-.163l-.217-.213.143-.33a.768.768 0 0 0 .06-.267l.405-2.336a.761.761 0 0 0-.006-.284l-.037-1.783a.748.748 0 0 0-.022-.158l-.101-.98a.739.739 0 0 0-.014-.012.739.739 0 0 0-.012-.123l-.25-.84a.739.739 0 0 0-.164-.285l-.267-.406a.727.727 0 0 0-.66-.323l-.063-.006a.714.714 0 0 0-.102-.004zm-.127 1.555.196.658.093.924a.748.748 0 0 0-.002.031l.037 1.782-.398 2.302-.021.051-.618-.056a.781.781 0 0 0-.248.02.779.779 0 0 0-.013.003.781.781 0 0 0-.09.03.779.779 0 0 0-.022.005l-.55.23a.779.779 0 0 0-.08.042l-.047-1.75.087-1.205.393-1.078.734-1.403.434-.535zm-3.1 3.092-.003.049-.008-.016a.574.574 0 0 0 .011-.033zm2.337 4.213-.082.191-.694 1.045-.039-.46.332-.429.32-.279zm16.808 2.431a.373.373 0 0 0-.15.047.507.507 0 0 0-.389.147l-.062.062a.54.54 0 0 0-.096.057l-.201.152-.66.307a.54.54 0 0 0-.29.644l.03.168a.536.536 0 0 0 .473.44l.029.012a.511.511 0 0 0 .264.033l.078.013a.487.487 0 0 0 .564-.396.487.487 0 0 0-.021-.246l.039-.018a.54.54 0 0 0 .068-.05.54.54 0 0 0 .031-.008l.25-.192a.54.54 0 0 0 .162-.201l.059-.06a.507.507 0 0 0 .146-.31.373.373 0 0 0-.011-.472.373.373 0 0 0-.254-.129.373.373 0 0 0-.059 0zm-8.691 1.956a.419.419 0 0 0-.17.048.419.419 0 0 0-.012.008.426.426 0 0 0-.234.381v.02a.426.426 0 0 0 .004.06.428.428 0 0 0 0 .004.426.426 0 0 0 .014.055.428.428 0 0 0 .273.287l.06.02a.428.428 0 0 0 .01-.004.426.426 0 0 0 .02.002.428.428 0 0 0 .008.011l.053.014a.424.424 0 0 0 .345.074l.057.006a.402.402 0 0 0 .443-.357.402.402 0 0 0-.357-.442h-.002a.428.428 0 0 0-.174-.086l-.047-.011a.419.419 0 0 0-.29-.09z" color="#000" style="-inkscape-stroke:none"/></svg>